<?xml version="1.0" standalone="no"?>
<!DOCTYPE svg PUBLIC "-//W3C//DTD SVG 20010904//EN"
 "http://www.w3.org/TR/2001/REC-SVG-20010904/DTD/svg10.dtd">
<svg version="1.0" xmlns="http://www.w3.org/2000/svg"
 width="220.000000pt" height="50.000000pt" viewBox="0 0 220.000000 50.000000"
 preserveAspectRatio="xMidYMid meet">
<metadata>
Created by potrace 1.16, written by Peter Selinger 2001-2019
</metadata>
<g transform="translate(0.000000,50.000000) scale(0.100000,-0.100000)"
fill="#000000" stroke="none">
<path d="M132 348 l-102 -103 105 -105 106 -106 102 103 101 104 -104 104
-105 105 -103 -102z m165 -44 c2 -6 -9 -11 -26 -11 -70 0 -107 -58 -65 -100
33 -33 17 -51 -19 -23 -49 39 -32 100 36 131 44 20 68 21 74 3z m3 -28 c0 -18
-15 -36 -29 -36 -26 0 -33 -11 -16 -24 10 -7 12 -16 6 -25 -8 -12 -14 -13 -35
-3 -52 23 -21 92 41 92 18 0 33 -2 33 -4z"/>
<path d="M641 434 c6 -8 9 -40 7 -79 l-3 -65 33 0 c53 0 94 57 56 78 -14 8
-14 12 -3 30 19 30 0 46 -57 48 -36 1 -42 -1 -33 -12z m69 -4 c12 -7 12 -13 4
-27 -18 -29 -44 -29 -44 0 0 36 13 45 40 27z m15 -80 c8 -25 -10 -50 -36 -50
-15 0 -19 7 -19 35 0 30 3 35 24 35 16 0 27 -7 31 -20z"/>
<path d="M781 436 c13 -14 11 -120 -3 -134 -9 -9 -6 -12 17 -12 23 0 26 3 17
12 -14 14 -16 106 -3 127 12 19 51 4 51 -20 0 -10 -9 -24 -19 -31 -19 -11 -18
-13 11 -50 16 -21 34 -38 40 -38 5 0 -4 17 -20 38 -29 37 -30 39 -11 50 24 15
25 48 1 61 -24 13 -94 10 -81 -3z"/>
<path d="M506 370 c-16 -38 -34 -72 -40 -74 -6 -2 3 -5 19 -5 19 0 25 2 17 7
-7 5 -10 16 -6 26 5 13 16 16 43 14 30 -3 36 -7 35 -25 0 -17 5 -23 21 -23 20
0 19 3 -15 75 -19 41 -37 75 -40 75 -3 0 -18 -31 -34 -70z m49 3 c5 -20 3 -23
-19 -23 -30 0 -30 0 -14 35 12 27 22 24 33 -12z"/>
<path d="M470 185 c9 -10 11 -32 7 -65 l-6 -50 35 0 c24 0 43 8 59 25 50 49
18 105 -61 105 -40 0 -45 -2 -34 -15z m81 -5 c23 -13 26 -62 3 -84 -8 -9 -26
-16 -40 -16 -22 0 -24 3 -24 55 0 49 2 55 21 55 11 0 29 -5 40 -10z"/>
<path d="M1075 190 c-3 -5 -1 -10 4 -10 6 0 11 5 11 10 0 6 -2 10 -4 10 -3 0
-8 -4 -11 -10z"/>
<path d="M1249 191 c9 -6 12 -25 10 -65 -4 -50 -2 -56 16 -56 15 0 16 3 7 12
-7 7 -12 21 -12 31 0 15 5 18 25 15 15 -3 25 -1 25 7 0 6 -10 11 -22 11 -17
-1 -23 5 -23 19 0 16 6 20 28 18 15 -1 27 2 27 8 0 5 -21 9 -47 9 -31 0 -43
-3 -34 -9z"/>
<path d="M1628 175 c3 -20 1 -24 -12 -19 -20 8 -56 -22 -56 -46 0 -20 19 -40
39 -40 12 0 11 3 -3 13 -24 18 -18 62 9 62 16 0 20 -7 21 -34 0 -19 4 -36 10
-38 5 -2 8 24 6 62 -2 36 -7 65 -11 65 -5 0 -6 -11 -3 -25z"/>
<path d="M1851 179 c7 -13 9 -40 5 -66 l-6 -44 42 3 c24 2 43 8 44 16 1 7 0 8
-3 2 -2 -5 -18 -10 -34 -10 -28 0 -29 1 -29 54 0 34 5 56 13 59 6 3 -1 6 -16
6 -25 1 -27 -1 -16 -20z"/>
<path d="M1959 191 c10 -6 12 -24 9 -65 l-5 -56 44 0 c35 0 43 3 42 18 0 10
-3 12 -6 5 -2 -7 -18 -13 -34 -13 -28 0 -29 1 -29 54 0 34 5 56 13 59 6 3 -1
6 -18 6 -21 1 -26 -2 -16 -8z"/>
<path d="M2081 174 c-26 -33 -26 -45 0 -78 15 -19 30 -26 54 -26 19 0 36 4 39
8 3 5 -8 6 -25 4 -55 -8 -91 54 -53 92 19 19 55 21 73 4 11 -11 13 -10 9 2 -3
9 -19 16 -40 18 -29 2 -40 -2 -57 -24z"/>
<path d="M621 120 c11 -22 19 -45 19 -52 0 -10 3 -10 9 1 6 9 4 23 -6 38 -8
12 -13 29 -10 36 3 7 -3 13 -13 14 -16 1 -16 -1 1 -37z"/>
<path d="M666 138 c-10 -39 -7 -44 9 -14 17 33 18 36 6 36 -5 0 -11 -10 -15
-22z"/>
<path d="M758 148 c7 -7 12 -24 12 -39 0 -15 5 -31 10 -34 14 -9 13 58 -2 73
-7 7 -17 12 -22 12 -6 0 -5 -5 2 -12z"/>
<path d="M826 151 c-4 -5 3 -7 14 -4 19 5 26 -12 21 -54 -1 -6 3 -14 9 -18 6
-4 10 9 10 33 0 27 -5 42 -16 46 -22 8 -32 8 -38 -3z"/>
<path d="M954 147 c14 -10 17 -23 14 -45 -3 -21 0 -32 7 -32 8 0 10 10 7 25
-5 26 14 59 29 49 5 -3 9 -18 9 -34 0 -16 5 -32 10 -35 16 -10 12 61 -5 75
-12 10 -18 10 -29 1 -10 -8 -16 -9 -21 -1 -3 5 -14 10 -23 10 -14 0 -13 -2 2
-13z"/>
<path d="M1166 146 c21 -15 30 -14 19 3 -3 6 -14 11 -23 11 -13 0 -13 -2 4
-14z"/>
<path d="M1508 148 c7 -7 12 -27 12 -45 0 -18 5 -33 10 -33 6 0 10 15 10 33 0
33 -15 57 -34 57 -6 0 -5 -5 2 -12z"/>
<path d="M1682 148 c-18 -18 -15 -27 13 -38 14 -5 25 -15 25 -21 0 -7 -10 -9
-25 -7 -14 3 -25 1 -25 -3 0 -13 44 -11 57 2 16 16 5 39 -18 39 -11 0 -19 7
-19 16 0 11 6 15 20 11 11 -3 18 -1 14 4 -7 13 -28 11 -42 -3z"/>
<path d="M713 110 c0 -22 3 -40 8 -40 5 0 9 18 9 40 0 52 -15 52 -17 0z"/>
<path d="M914 110 c0 -22 4 -40 8 -40 4 0 8 18 8 40 0 22 -3 40 -7 40 -5 0 -8
-18 -9 -40z"/>
<path d="M1075 110 c-1 -22 4 -40 10 -40 6 0 9 16 7 40 -5 52 -17 52 -17 0z"/>
<path d="M1127 143 c-11 -11 -8 -48 5 -61 7 -7 21 -12 33 -12 18 0 17 2 -5 13
-18 10 -24 20 -23 40 2 28 0 31 -10 20z"/>
<path d="M1354 113 c3 -21 5 -39 6 -40 0 -2 10 -2 23 -2 16 1 18 2 5 6 -13 3
-18 15 -18 39 0 19 -5 34 -11 34 -7 0 -9 -14 -5 -37z"/>
<path d="M1410 116 c0 -19 5 -38 10 -41 6 -4 10 10 10 34 0 23 -4 41 -10 41
-5 0 -10 -15 -10 -34z"/>
<path d="M1460 110 c0 -22 5 -40 10 -40 6 0 10 18 10 40 0 22 -4 40 -10 40 -5
0 -10 -18 -10 -40z"/>
<path d="M820 105 c-14 -17 -5 -35 18 -34 11 0 12 3 5 6 -7 2 -13 11 -13 18 0
7 6 16 13 18 7 4 8 6 1 6 -6 1 -17 -6 -24 -14z"/>
<path d="M1750 71 c-6 -12 -7 -21 -1 -21 10 0 24 30 17 37 -2 3 -9 -5 -16 -16z"/>
<path d="M616 35 c-16 -12 -17 -15 -4 -15 9 0 18 7 22 15 7 18 6 18 -18 0z"/>
</g>
</svg>
